<?xml version="1.0" encoding="UTF-8" standalone="no"?>
<svg
   version="1.0"
   width="713.90356pt"
   height="661.65533pt"
   viewBox="0 0 713.90356 661.65533"
   preserveAspectRatio="xMidYMid"
   id="svg2"
   xmlns="http://www.w3.org/2000/svg"
   xmlns:svg="http://www.w3.org/2000/svg">
  <defs
     id="defs2" />
  <g
     transform="matrix(0.1,0,0,-0.1,-151.5,851.65535)"
     fill="#fe7f7e"
     stroke="none"
     id="g2">
    <path
       d="m 6525,8505 c -272,-44 -505,-163 -701,-359 -132,-132 -164,-180 -341,-502 L 5335,7372 4250,6279 C 3653,5677 2928,4947 2638,4655 c -290,-291 -526,-531 -524,-532 1,-1 47,14 102,33 81,30 606,216 784,278 690,243 2223,746 2235,734 4,-4 -81,-48 -845,-443 -338,-175 -750,-388 -915,-473 -165,-86 -379,-196 -476,-244 -167,-83 -180,-91 -251,-165 -41,-43 -173,-181 -293,-308 -255,-267 -694,-724 -839,-873 l -101,-103 190,6 c 105,4 271,10 369,14 l 180,7 120,125 c 208,217 564,597 767,819 244,269 262,288 253,270 -25,-48 -779,-1164 -1081,-1599 -63,-90 -112,-165 -111,-167 2,-2 82,27 178,65 96,37 207,80 247,95 40,15 83,36 97,47 23,18 113,149 578,838 l 138,205 103,61 c 56,34 195,114 309,178 l 207,117 h 180 179 l 264,-353 c 264,-351 395,-530 457,-620 l 32,-48 -208,2 -208,1 -163,-197 c -146,-176 -163,-200 -160,-229 l 3,-32 190,83 189,84 304,-7 303,-7 296,-209 c 162,-114 298,-208 302,-208 4,0 14,15 23,33 l 16,33 -103,162 c -56,89 -108,169 -115,177 -11,13 47,15 503,15 h 516 l 233,-89 233,-89 3,36 c 3,34 -4,43 -204,243 l -207,207 -244,-2 -245,-1 -247,330 c -476,634 -514,687 -499,696 7,5 20,9 29,9 9,0 83,18 165,41 934,256 1595,915 1763,1760 36,178 41,294 41,864 v 553 l 51,219 c 34,149 56,223 68,233 10,8 207,121 439,250 231,129 419,237 416,239 -3,3 -550,116 -886,183 -50,10 -60,16 -93,60 -115,150 -340,305 -555,383 -178,64 -419,88 -595,60 z m 557,-483 c 112,-49 172,-144 172,-272 1,-172 -120,-294 -289,-294 -157,0 -280,113 -293,269 -11,146 73,268 218,316 40,13 142,3 192,-19 z M 5748,7099 c 538,-103 860,-512 839,-1064 -15,-382 -172,-694 -489,-971 -193,-169 -300,-236 -853,-534 -39,-21 -354,-182 -700,-358 -347,-176 -668,-340 -714,-366 -92,-51 -101,-54 -78,-28 8,9 85,118 171,242 l 157,224 287,149 c 1057,547 1192,621 1346,730 423,300 649,671 673,1107 4,90 -7,243 -19,256 -3,2 -146,-72 -319,-164 -173,-93 -507,-271 -744,-397 C 4114,5293 3553,4992 3275,4838 l -160,-88 875,877 c 482,483 1015,1019 1185,1191 l 310,314 80,-7 c 44,-4 127,-15 183,-26 z M 5408,3488 c 65,-84 230,-299 367,-478 136,-179 259,-337 273,-352 l 26,-28 h -86 c -46,0 -165,-3 -264,-6 l -179,-6 -140,193 c -77,107 -247,337 -377,511 l -238,318 h 250 249 z"
       id="path1" />
    <path
       d="m 6905,7888 c -76,-42 -107,-113 -80,-185 60,-156 285,-115 285,53 0,99 -123,178 -205,132 z"
       id="path2" />
  </g>
</svg>
